<svg
  width="128"
  height="128"
  viewBox="0 0 128 128"
  fill="none"
  xmlns="http://www.w3.org/2000/svg"
>
  <path
    fill-rule="evenodd"
    clip-rule="evenodd"
    d="M97.74 28.5274C97.4641 28.5523 96.4199 28.633 95.4196 28.7069C91.2929 29.0114 88.1984 29.5624 85.26 30.5158C79.0898 32.5176 72.6812 35.7277 66.4544 39.9356C61.66 43.1752 57.9968 46.0685 50.3911 52.6225C45.6728 56.6885 45.4815 56.8387 44.3101 57.3996C41.7037 58.6475 39.3926 58.5592 34.0228 57.0068C32.7811 56.6479 31.2853 56.2443 30.699 56.1103C27.8687 55.4631 21.9888 55.7968 17.2782 56.8718C13.8419 57.656 10.589 58.9705 9.51914 60.0072C9.07287 60.4396 9 60.584 9 61.0365C9 61.5126 9.06886 61.6296 9.72409 62.2658C10.6455 63.1603 12.2279 64.0535 15.7114 65.6453C19.9051 67.5613 23.3613 69.3029 24.6258 70.1369C27.1535 71.8043 28.0438 73.5038 26.9326 74.5401C26.3928 75.0435 25.6525 75.1765 22.7343 75.2944C19.8734 75.4099 19.5966 75.4428 18.4655 75.8018C17.5622 76.0886 16.871 76.6254 16.4907 77.3355C16.2501 77.7846 16.2127 78.0437 16.2171 79.2332C16.2215 80.4527 16.2685 80.7454 16.6276 81.7848C18.1715 86.255 22.1207 91.4158 26.9186 95.2331C29.8893 97.5965 31.7889 98.6986 33.6647 99.1468C35.0611 99.4804 38.8363 99.3563 40.545 98.9208C49.4308 96.6553 56.2893 91.6997 65.0192 81.2369C65.7088 80.4104 67.6282 78.0434 69.2845 75.977C73.3318 70.9276 74.8323 69.1702 76.9158 67.0395C80.3115 63.5669 86.8379 60.8949 88.2568 60.7374C90.1487 60.3035 95.7115 60.1405 101.001 61.5573C106.811 63.4632 109.75 66.6732 112.73 70.7172C115.268 74.162 115.479 74.3839 116.336 74.4986C116.981 74.5849 117.469 74.172 117.927 73.1524C118.712 71.4055 119 68.8948 119 63.7965C119 55.5544 118.087 49.362 115.918 42.9012C114.339 38.1978 112.209 34.3192 109.977 32.0843C108.453 30.5583 106.926 29.6188 104.754 28.8712C103.8 28.5426 103.65 28.5279 101.001 28.5056C99.4835 28.4928 98.016 28.5026 97.74 28.5274Z"
    fill="#CCE6F2"
  />
  <path
    d="M80.9613 72.4411C83.6428 69.622 86.9346 67.9571 90.7803 67.4747C92.8881 67.2105 95.9944 67.5619 98.0627 68.2989C102.555 69.8994 106.242 73.5786 107.862 78.0757C109.273 81.9955 108.992 86.7532 107.125 90.5182C104.378 96.0586 98.8277 99.4979 92.6306 99.5C86.8522 99.502 81.6324 96.4893 78.684 91.4506C77.9733 90.2362 77.4233 88.8636 76.9961 87.2387C76.5637 85.594 76.4599 82.6981 76.7667 80.8401C77.2947 77.6414 78.7097 74.8084 80.9613 72.4411Z"
    fill="#F1592A"
  />
</svg>
