<svg width="811" height="165" viewBox="0 0 811 165" fill="none" xmlns="http://www.w3.org/2000/svg">
<path fill-rule="evenodd" clip-rule="evenodd" d="M225.909 0.0636861C225.272 0.121603 222.86 0.309033 220.551 0.480746C211.022 1.18855 203.876 2.46884 197.091 4.68452C182.844 9.33678 168.046 16.7967 153.667 26.5757C142.597 34.1043 134.138 40.8282 116.576 56.0594C105.681 65.5086 105.239 65.8576 102.534 67.1611C96.5159 70.0611 91.1793 69.8559 78.7799 66.2481C75.9127 65.414 72.4589 64.4763 71.1049 64.1649C64.5695 62.6608 50.9923 63.4361 40.1152 65.9344C32.1803 67.7569 24.6692 70.8117 22.1988 73.2209C21.1683 74.2258 21 74.5614 21 75.6129C21 76.7195 21.159 76.9913 22.672 78.4698C24.7996 80.5487 28.4535 82.6244 36.4972 86.3235C46.1808 90.7764 54.1616 94.8236 57.0813 96.7619C62.9181 100.637 64.9739 104.586 62.4081 106.995C61.1615 108.165 59.4522 108.474 52.7138 108.748C46.1078 109.016 45.4686 109.092 42.8567 109.927C40.7709 110.593 39.1748 111.841 38.2966 113.491C37.7411 114.535 37.6548 115.137 37.6649 117.901C37.6751 120.735 37.7837 121.415 38.6129 123.831C42.1779 134.219 51.297 146.213 62.3756 155.084C69.2354 160.576 73.6217 163.138 77.9531 164.179C81.1774 164.955 89.8948 164.666 93.8404 163.654C114.358 158.389 130.195 146.872 150.353 122.558C151.946 120.637 156.378 115.136 160.202 110.334C169.548 98.5993 173.013 94.5154 177.824 89.5636C185.665 81.4934 200.735 75.2838 204.011 74.918C208.38 73.9096 221.225 73.5308 233.439 76.8232C246.854 81.2525 253.641 88.7123 260.521 98.1103C266.382 106.116 266.871 106.632 268.849 106.898C270.337 107.099 271.464 106.139 272.522 103.77C274.335 99.7099 275 93.8754 275 82.0272C275 62.873 272.891 48.4822 267.883 33.4675C264.237 22.5372 259.318 13.5234 254.164 8.32979C250.646 4.78348 247.12 2.60009 242.106 0.86259C239.903 0.0989035 239.556 0.0648502 233.439 0.0130452C229.935 -0.0166408 226.546 0.00606038 225.909 0.0636861Z" fill="#CCE6F2"/>
<path d="M187.165 102.117C193.357 95.5653 200.958 91.696 209.838 90.5751C214.705 89.961 221.878 90.7777 226.654 92.4904C237.027 96.21 245.542 104.76 249.281 115.211C252.54 124.321 251.889 135.377 247.579 144.127C241.236 157.002 228.42 164.995 214.111 165C200.768 165.005 188.715 158.003 181.907 146.294C180.266 143.472 178.996 140.282 178.009 136.505C177.011 132.683 176.771 125.953 177.479 121.635C178.699 114.202 181.966 107.618 187.165 102.117Z" fill="#F1592A"/>
<path d="M343.75 105.188C343.75 108.594 342.922 111.469 341.266 113.812C339.609 116.156 337.188 117.938 334 119.156C330.844 120.344 326.969 120.938 322.375 120.938C318.75 120.938 315.625 120.672 313 120.141C310.406 119.641 307.953 118.859 305.641 117.797V108.281C308.109 109.438 310.875 110.438 313.938 111.281C317.031 112.125 319.953 112.547 322.703 112.547C326.328 112.547 328.938 111.984 330.531 110.859C332.125 109.703 332.922 108.172 332.922 106.266C332.922 105.141 332.594 104.141 331.938 103.266C331.312 102.359 330.125 101.438 328.375 100.5C326.656 99.5312 324.125 98.375 320.781 97.0312C317.5 95.7188 314.734 94.4062 312.484 93.0938C310.234 91.7812 308.531 90.2031 307.375 88.3594C306.219 86.4844 305.641 84.0938 305.641 81.1875C305.641 76.5938 307.453 73.1094 311.078 70.7344C314.734 68.3281 319.562 67.125 325.562 67.125C328.75 67.125 331.75 67.4531 334.562 68.1094C337.406 68.7344 340.188 69.6562 342.906 70.875L339.438 79.1719C337.094 78.1406 334.734 77.2969 332.359 76.6406C330.016 75.9531 327.625 75.6094 325.188 75.6094C322.344 75.6094 320.172 76.0469 318.672 76.9219C317.203 77.7969 316.469 79.0469 316.469 80.6719C316.469 81.8906 316.828 82.9219 317.547 83.7656C318.266 84.6094 319.5 85.4531 321.25 86.2969C323.031 87.1406 325.5 88.1875 328.656 89.4375C331.75 90.625 334.422 91.875 336.672 93.1875C338.953 94.4688 340.703 96.0469 341.922 97.9219C343.141 99.7969 343.75 102.219 343.75 105.188ZM388.609 143.016V120.984C388.609 119.734 388.641 118.375 388.703 116.906C388.797 115.438 388.938 114.094 389.125 112.875H388.562C387.156 115.156 385.203 117.078 382.703 118.641C380.203 120.172 376.938 120.938 372.906 120.938C366.812 120.938 361.906 118.688 358.188 114.188C354.469 109.656 352.609 102.969 352.609 94.125C352.609 88.25 353.469 83.3125 355.188 79.3125C356.906 75.3125 359.312 72.2812 362.406 70.2188C365.531 68.1562 369.156 67.125 373.281 67.125C377.25 67.125 380.469 67.9062 382.938 69.4688C385.438 71 387.438 72.8906 388.938 75.1406H389.312L390.531 68.1094H399.672V143.016H388.609ZM376.188 112.078C379.312 112.078 381.812 111.484 383.688 110.297C385.562 109.109 386.922 107.312 387.766 104.906C388.609 102.469 389.062 99.4531 389.125 95.8594V94.1719C389.125 88.2969 388.172 83.8281 386.266 80.7656C384.359 77.7031 380.969 76.1719 376.094 76.1719C371.969 76.1719 368.906 77.7812 366.906 81C364.906 84.1875 363.906 88.625 363.906 94.3125C363.906 100.062 364.906 104.469 366.906 107.531C368.938 110.562 372.031 112.078 376.188 112.078ZM460.703 68.1094V120H452.031L450.531 113.016H449.922C448.828 114.797 447.438 116.281 445.75 117.469C444.062 118.625 442.188 119.484 440.125 120.047C438.062 120.641 435.891 120.938 433.609 120.938C429.703 120.938 426.359 120.281 423.578 118.969C420.828 117.625 418.719 115.562 417.25 112.781C415.781 110 415.047 106.406 415.047 102V68.1094H426.109V99.9375C426.109 103.969 426.922 106.984 428.547 108.984C430.203 110.984 432.766 111.984 436.234 111.984C439.578 111.984 442.234 111.297 444.203 109.922C446.172 108.547 447.562 106.516 448.375 103.828C449.219 101.141 449.641 97.8438 449.641 93.9375V68.1094H460.703ZM487.516 68.1094V120H476.5V68.1094H487.516ZM482.078 48.2344C483.766 48.2344 485.219 48.6875 486.438 49.5938C487.688 50.5 488.312 52.0625 488.312 54.2812C488.312 56.4688 487.688 58.0312 486.438 58.9688C485.219 59.875 483.766 60.3281 482.078 60.3281C480.328 60.3281 478.844 59.875 477.625 58.9688C476.438 58.0312 475.844 56.4688 475.844 54.2812C475.844 52.0625 476.438 50.5 477.625 49.5938C478.844 48.6875 480.328 48.2344 482.078 48.2344ZM520.75 120.938C514.562 120.938 509.594 118.688 505.844 114.188C502.125 109.656 500.266 102.984 500.266 94.1719C500.266 85.2656 502.156 78.5312 505.938 73.9688C509.75 69.4062 514.766 67.125 520.984 67.125C523.609 67.125 525.906 67.4844 527.875 68.2031C529.844 68.8906 531.531 69.8281 532.938 71.0156C534.375 72.2031 535.594 73.5312 536.594 75H537.109C536.953 74.0312 536.766 72.6406 536.547 70.8281C536.359 68.9844 536.266 67.2812 536.266 65.7188V47.0625H547.328V120H538.703L536.734 112.922H536.266C535.328 114.422 534.141 115.781 532.703 117C531.297 118.188 529.609 119.141 527.641 119.859C525.703 120.578 523.406 120.938 520.75 120.938ZM523.844 111.984C528.562 111.984 531.891 110.625 533.828 107.906C535.766 105.188 536.766 101.109 536.828 95.6719V94.2188C536.828 88.4062 535.891 83.9531 534.016 80.8594C532.141 77.7344 528.719 76.1719 523.75 76.1719C519.781 76.1719 516.75 77.7812 514.656 81C512.594 84.1875 511.562 88.6406 511.562 94.3594C511.562 100.078 512.594 104.453 514.656 107.484C516.75 110.484 519.812 111.984 523.844 111.984ZM630.484 119.953L623.922 95.8125C623.609 94.625 623.234 93.1875 622.797 91.5C622.359 89.8125 621.922 88.0781 621.484 86.2969C621.047 84.4844 620.641 82.8125 620.266 81.2812C619.922 79.75 619.656 78.5625 619.469 77.7188H619.094C618.938 78.5625 618.688 79.75 618.344 81.2812C618 82.8125 617.609 84.4844 617.172 86.2969C616.734 88.1094 616.297 89.875 615.859 91.5938C615.453 93.3125 615.078 94.7812 614.734 96L607.844 119.953H595.75L581.219 68.0625H592.375L599.125 93.8438C599.562 95.5938 599.984 97.4844 600.391 99.5156C600.828 101.547 601.203 103.484 601.516 105.328C601.828 107.172 602.062 108.688 602.219 109.875H602.594C602.719 109.031 602.891 107.969 603.109 106.688C603.328 105.375 603.578 104.016 603.859 102.609C604.141 101.172 604.422 99.8281 604.703 98.5781C604.984 97.2969 605.25 96.2656 605.5 95.4844L613.469 68.0625H625.516L633.156 95.4844C633.5 96.6719 633.875 98.1719 634.281 99.9844C634.688 101.766 635.047 103.562 635.359 105.375C635.703 107.156 635.922 108.641 636.016 109.828H636.391C636.516 108.766 636.734 107.328 637.047 105.516C637.391 103.672 637.781 101.719 638.219 99.6562C638.656 97.5625 639.109 95.625 639.578 93.8438L646.469 68.0625H657.438L642.812 119.953H630.484ZM686.688 67.125C693.25 67.125 698.203 68.5781 701.547 71.4844C704.922 74.3906 706.609 78.9219 706.609 85.0781V120H698.781L696.672 112.641H696.297C694.828 114.516 693.312 116.062 691.75 117.281C690.188 118.5 688.375 119.406 686.312 120C684.281 120.625 681.797 120.938 678.859 120.938C675.766 120.938 673 120.375 670.562 119.25C668.125 118.094 666.203 116.344 664.797 114C663.391 111.656 662.688 108.688 662.688 105.094C662.688 99.75 664.672 95.7344 668.641 93.0469C672.641 90.3594 678.672 88.875 686.734 88.5938L695.734 88.2656V85.5469C695.734 81.9531 694.891 79.3906 693.203 77.8594C691.547 76.3281 689.203 75.5625 686.172 75.5625C683.578 75.5625 681.062 75.9375 678.625 76.6875C676.188 77.4375 673.812 78.3594 671.5 79.4531L667.938 71.6719C670.469 70.3281 673.344 69.2344 676.562 68.3906C679.812 67.5469 683.188 67.125 686.688 67.125ZM695.688 95.2031L688.984 95.4375C683.484 95.625 679.625 96.5625 677.406 98.25C675.188 99.9375 674.078 102.25 674.078 105.188C674.078 107.75 674.844 109.625 676.375 110.812C677.906 111.969 679.922 112.547 682.422 112.547C686.234 112.547 689.391 111.469 691.891 109.312C694.422 107.125 695.688 103.922 695.688 99.7031V95.2031ZM748.328 67.125C749.203 67.125 750.156 67.1719 751.188 67.2656C752.219 67.3594 753.109 67.4844 753.859 67.6406L752.828 77.9531C752.172 77.7656 751.359 77.625 750.391 77.5312C749.453 77.4375 748.609 77.3906 747.859 77.3906C745.891 77.3906 744.016 77.7188 742.234 78.375C740.453 79 738.875 79.9688 737.5 81.2812C736.125 82.5625 735.047 84.1719 734.266 86.1094C733.484 88.0469 733.094 90.2969 733.094 92.8594V120H722.031V68.1094H730.656L732.156 77.25H732.672C733.703 75.4062 734.984 73.7188 736.516 72.1875C738.047 70.6562 739.797 69.4375 741.766 68.5312C743.766 67.5938 745.953 67.125 748.328 67.125ZM784.141 67.125C788.766 67.125 792.734 68.0781 796.047 69.9844C799.359 71.8906 801.906 74.5938 803.688 78.0938C805.469 81.5938 806.359 85.7812 806.359 90.6562V96.5625H771.719C771.844 101.594 773.188 105.469 775.75 108.188C778.344 110.906 781.969 112.266 786.625 112.266C789.938 112.266 792.906 111.953 795.531 111.328C798.188 110.672 800.922 109.719 803.734 108.469V117.422C801.141 118.641 798.5 119.531 795.812 120.094C793.125 120.656 789.906 120.938 786.156 120.938C781.062 120.938 776.578 119.953 772.703 117.984C768.859 115.984 765.844 113.016 763.656 109.078C761.5 105.141 760.422 100.25 760.422 94.4062C760.422 88.5938 761.406 83.6562 763.375 79.5938C765.344 75.5312 768.109 72.4375 771.672 70.3125C775.234 68.1875 779.391 67.125 784.141 67.125ZM784.141 75.4219C780.672 75.4219 777.859 76.5469 775.703 78.7969C773.578 81.0469 772.328 84.3438 771.953 88.6875H795.578C795.547 86.0938 795.109 83.7969 794.266 81.7969C793.453 79.7969 792.203 78.2344 790.516 77.1094C788.859 75.9844 786.734 75.4219 784.141 75.4219Z" fill="black"/>
<path d="M559.543 85.9184C561.103 84.2905 563.019 83.3291 565.256 83.0505C566.482 82.8979 568.29 83.1009 569.493 83.5264C572.107 84.4507 574.252 86.5753 575.194 89.1722C576.016 91.4358 575.852 94.1832 574.766 96.3573C573.167 99.5567 569.938 101.543 566.333 101.544C562.971 101.545 559.934 99.8054 558.218 96.8958C557.805 96.1945 557.485 95.4019 557.236 94.4635C556.985 93.5138 556.924 91.8415 557.103 90.7685C557.41 88.9214 558.233 87.2855 559.543 85.9184Z" fill="#F1592A"/>
</svg>
